<svg xmlns="http://www.w3.org/2000/svg" viewBox="0 0 24 24" role="img" aria-label="Network element">
  <!-- Lucide "box" (ISC License, https://lucide.dev) — neutral device fallback. Mid-slate (#475569)
       glyph on a faint inset slate chip (transparent elsewhere) so it reads on BOTH the white (light)
       and dark-navy (dark) node chip without becoming a big grey square. -->
  <rect x="3" y="3" width="18" height="18" rx="4" fill="#94a3b8" fill-opacity="0.18"/>
  <g fill="none" stroke="#475569" stroke-width="2" stroke-linecap="round" stroke-linejoin="round">
    <path d="M21 8a2 2 0 0 0-1-1.73l-7-4a2 2 0 0 0-2 0l-7 4A2 2 0 0 0 3 8v8a2 2 0 0 0 1 1.73l7 4a2 2 0 0 0 2 0l7-4A2 2 0 0 0 21 16Z"/>
    <path d="m3.3 7 8.7 5 8.7-5"/>
    <path d="M12 22V12"/>
  </g>
</svg>
